<svg width="43" height="29" viewBox="0 0 43 29" fill="none" xmlns="http://www.w3.org/2000/svg">
<path d="M4.43651 0C1.97937 0 0 1.95581 0 4.38372V25.1893C0 27.28 1.74074 29 3.85662 29H38.5635C41.0206 29 43 27.0442 43 24.6163V3.81073C43 1.72003 41.2593 0 39.1434 0H4.43651ZM4.43651 2.02326H39.1434C40.1331 2.02326 40.9524 2.83282 40.9524 3.81073V24.6163C40.9524 25.9314 39.8944 26.9767 38.5635 26.9767H3.85662C2.86693 26.9767 2.04762 26.1672 2.04762 25.1893V4.38372C2.04762 3.0686 3.10556 2.02326 4.43651 2.02326ZM28.2068 4.3857C28.0769 4.39018 27.9457 4.40045 27.8135 4.41731C25.9706 4.65336 24.4689 6.13708 24.2642 7.95801C23.9911 10.4196 25.9024 12.4767 28.3254 12.4767C29.1786 12.4767 29.9632 12.2071 30.6116 11.7687C30.987 11.5327 31.4307 11.5327 31.8061 11.7687C32.4545 12.2071 33.2398 12.4767 34.093 12.4767C36.516 12.4767 38.4272 10.4196 38.1542 7.95801C37.9836 6.13708 36.5159 4.65336 34.6389 4.41731C33.581 4.28243 32.591 4.55219 31.8061 5.09173C31.4648 5.32778 30.9876 5.32778 30.6463 5.09173C29.9595 4.61964 29.1157 4.35435 28.2068 4.3857ZM6.58677 20.5698C6.00662 20.5698 5.56297 21.0081 5.56297 21.5814C5.56297 22.1547 6.00662 22.593 6.58677 22.593H20.9201C21.5003 22.593 21.9439 22.1547 21.9439 21.5814C21.9439 21.0081 21.5003 20.5698 20.9201 20.5698H6.58677ZM27.7455 20.5698C27.1653 20.5698 26.7217 21.0081 26.7217 21.5814C26.7217 22.1547 27.1653 22.593 27.7455 22.593H31.1582C31.7384 22.593 32.182 22.1547 32.182 21.5814C32.182 21.0081 31.7384 20.5698 31.1582 20.5698H27.7455Z" fill="#FFD338"/>
</svg>
