<svg width="40" height="41" viewBox="0 0 40 41" fill="none" xmlns="http://www.w3.org/2000/svg">
<path d="M39.7656 8.8972C39.7656 8.85814 39.7656 8.85814 39.7656 8.81907C39.7656 8.74095 39.7266 8.66282 39.7266 8.62376V8.5847C39.7266 8.54564 39.6875 8.50657 39.6484 8.42845C39.6484 8.42845 39.6484 8.38939 39.6094 8.38939L34.9219 0.576887C34.6484 0.108137 34.0625 -0.126237 33.5156 0.0690752L25.2344 2.99876L20.2344 1.28001H20.1953C20.1562 1.28001 20.1172 1.28001 20.1172 1.24095C20.0781 1.24095 20.0391 1.24095 20 1.24095C19.9609 1.24095 19.9219 1.24095 19.9219 1.24095C19.8828 1.24095 19.8438 1.24095 19.8047 1.24095C19.7656 1.24095 19.7656 1.24095 19.7266 1.24095C19.6484 1.24095 19.5703 1.28001 19.5312 1.28001L0.78125 7.92064C0.3125 8.07689 0 8.54564 0 9.01439V32.4519C0 32.9597 0.3125 33.3894 0.78125 33.5456L19.5312 40.1863C19.5703 40.1863 19.6094 40.2253 19.6484 40.2253C19.6875 40.2253 19.6875 40.2253 19.7266 40.2253C19.7656 40.2253 19.8047 40.2253 19.8828 40.2253H19.9219C20 40.2253 20.0391 40.2253 20.1172 40.2253H20.1562C20.1953 40.2253 20.2344 40.1863 20.2734 40.1863L39.0234 33.5456C39.4922 33.3894 39.8047 32.9206 39.8047 32.4519V9.01439C39.7656 8.97532 39.7656 8.93626 39.7656 8.8972ZM7.65625 7.92064L19.8438 3.62376L21.7188 4.28782L14.7656 6.74876C14.4531 6.86595 14.1797 7.13939 14.0625 7.45189C13.9453 7.76439 13.9844 8.15501 14.1797 8.46751L14.8047 9.48314L10.2344 11.0066L4.60938 9.01439L7.65625 7.92064ZM18.6719 37.4519L2.26562 31.6316V10.655L18.6719 16.4753V37.4519ZM16.9141 8.46751L33.3984 2.60814L36.875 8.38939L20.3906 14.2488L16.9141 8.46751ZM37.4219 31.6316L21.0156 37.4519V16.4753L37.4219 10.655V31.6316Z" fill="#FFD338"/>
</svg>
