<svg width="59" height="59" viewBox="0 0 59 59" fill="none" xmlns="http://www.w3.org/2000/svg">
<path d="M24.8846 9.22369H5.76051C5.1243 9.22369 4.6084 9.7396 4.6084 10.3757V14.9839C4.6084 15.6201 5.1243 16.1359 5.76051 16.1359H24.8847C25.5209 16.1359 26.0368 15.62 26.0368 14.9839V10.3757C26.0367 9.7396 25.5208 9.22369 24.8846 9.22369ZM23.7326 13.8319H6.91251V11.5278H23.7326V13.8319Z" fill="#FFD338"/>
<path d="M24.8846 19.3618H5.76051C5.1243 19.3618 4.6084 19.8777 4.6084 20.5139C4.6084 21.1501 5.1243 21.6659 5.76051 21.6659H24.8847C25.5209 21.6659 26.0368 21.15 26.0368 20.5139C26.0368 19.8778 25.5208 19.3618 24.8846 19.3618Z" fill="#FFD338"/>
<path d="M24.8846 23.97H5.76051C5.1243 23.97 4.6084 24.4859 4.6084 25.122C4.6084 25.7581 5.1243 26.2741 5.76051 26.2741H24.8847C25.5209 26.2741 26.0368 25.7582 26.0368 25.122C26.0368 24.4858 25.5208 23.97 24.8846 23.97Z" fill="#FFD338"/>
<path d="M24.8846 29.9608H5.76051C5.1243 29.9608 4.6084 30.4767 4.6084 31.1129V44.9376C4.6084 45.5738 5.1243 46.0896 5.76051 46.0896H24.8847C25.5209 46.0896 26.0368 45.5737 26.0368 44.9376V31.1129C26.0367 30.4766 25.5208 29.9608 24.8846 29.9608ZM6.91251 32.265H22.7943L15.7257 39.3337L13.5451 37.1531C13.0951 36.7033 12.3657 36.7033 11.9156 37.1531L6.91251 42.1562V32.265ZM23.7326 43.7855H8.54192L12.7305 39.5969L14.9112 41.7776C15.3611 42.2274 16.0904 42.2274 16.5405 41.7776L23.7326 34.5854V43.7855Z" fill="#FFD338"/>
<path d="M57.848 2.31137H34.1082C32.227 2.31137 30.5536 3.217 29.5001 4.61491C28.4466 3.217 26.7732 2.31137 24.892 2.31137H1.152C0.515904 2.31137 0 2.82727 0 3.46348V50.9211V55.5366C0 56.1728 0.515904 56.6887 1.152 56.6887H6.45151C7.08772 56.6887 7.60363 56.1728 7.60363 55.5366C7.60363 54.9004 7.08772 54.3846 6.45151 54.3846H2.30411V52.0733H24.8918C26.3977 52.0733 27.6815 53.0396 28.1574 54.3846H17.8568C17.2206 54.3846 16.7048 54.9005 16.7048 55.5366C16.7048 56.1727 17.2207 56.6887 17.8568 56.6887H57.8333C58.4695 56.6887 58.9854 56.1728 58.9854 55.5366L59 3.46348C59 2.82727 58.4841 2.31137 57.848 2.31137ZM28.3406 8.07885V50.9168C27.3781 50.1965 26.184 49.769 24.8918 49.769H2.30411V4.61548H24.8918C26.7231 4.61548 28.2261 6.0445 28.3465 7.84585C28.3434 7.92328 28.3406 8.00072 28.3406 8.07885ZM56.6813 54.3844H30.8426C31.3185 53.0395 32.6023 52.073 34.1082 52.073H56.6813V54.3844ZM56.6959 49.769H34.1082C32.8162 49.769 31.622 50.1964 30.6594 50.9169V8.07897C30.6594 8.00084 30.6566 7.92328 30.6535 7.84608C30.7739 6.04473 32.2769 4.6156 34.1082 4.6156H56.6959V49.769Z" fill="#FFD338"/>
<path d="M53.2396 29.9608H34.1155C33.4793 29.9608 32.9634 30.4767 32.9634 31.1129C32.9634 31.7491 33.4792 32.2649 34.1155 32.2649H53.2397C53.8759 32.2649 54.3918 31.749 54.3918 31.1129C54.3918 30.4768 53.8758 29.9608 53.2396 29.9608Z" fill="#FFD338"/>
<path d="M53.2396 34.5691H34.1155C33.4793 34.5691 32.9634 35.085 32.9634 35.7211C32.9634 36.3572 33.4792 36.8731 34.1155 36.8731H53.2397C53.8759 36.8731 54.3918 36.3572 54.3918 35.7211C54.3918 35.085 53.8758 34.5691 53.2396 34.5691Z" fill="#FFD338"/>
<path d="M53.2396 39.1772H34.1155C33.4793 39.1772 32.9634 39.6931 32.9634 40.3294C32.9634 40.9656 33.4792 41.4814 34.1155 41.4814H53.2397C53.8759 41.4814 54.3918 40.9655 54.3918 40.3294C54.3917 39.6931 53.8758 39.1772 53.2396 39.1772Z" fill="#FFD338"/>
<path d="M53.2396 43.7855H34.1155C33.4793 43.7855 32.9634 44.3014 32.9634 44.9375C32.9634 45.5736 33.4792 46.0895 34.1155 46.0895H53.2397C53.8759 46.0895 54.3918 45.5736 54.3918 44.9375C54.3918 44.3014 53.8758 43.7855 53.2396 43.7855Z" fill="#FFD338"/>
<path d="M44.4845 9.56122C44.2703 9.34688 43.9742 9.22369 43.6701 9.22369C43.3671 9.22369 43.0698 9.34688 42.8557 9.56122C42.6414 9.77555 42.5181 10.0727 42.5181 10.3757C42.5181 10.6786 42.6414 10.9759 42.8557 11.1901C43.071 11.4045 43.3671 11.5277 43.6701 11.5277C43.973 11.5277 44.2703 11.4044 44.4845 11.1901C44.7 10.9758 44.8221 10.6786 44.8221 10.3757C44.8221 10.0727 44.7 9.77555 44.4845 9.56122Z" fill="#FFD338"/>
<path d="M53.2397 9.22369H48.9624C48.3262 9.22369 47.8104 9.7396 47.8104 10.3757C47.8104 11.0118 48.3263 11.5278 48.9624 11.5278H52.0876V23.0484H35.2676V11.5278H38.3635C38.9997 11.5278 39.5155 11.0119 39.5155 10.3757C39.5155 9.73948 38.9996 9.22369 38.3635 9.22369H34.1155C33.4793 9.22369 32.9634 9.7396 32.9634 10.3757V24.2004C32.9634 24.8367 33.4792 25.3524 34.1155 25.3524H53.2397C53.8759 25.3524 54.3918 24.8365 54.3918 24.2004V10.3758C54.3918 9.7396 53.8759 9.22369 53.2397 9.22369Z" fill="#FFD338"/>
<path d="M13.0645 54.7219C12.8503 54.5076 12.5531 54.3844 12.2501 54.3844C11.9472 54.3844 11.6499 54.5076 11.4357 54.7219C11.2213 54.9364 11.0981 55.2334 11.0981 55.5364C11.0981 55.8393 11.2213 56.1367 11.4357 56.3508C11.6499 56.565 11.9472 56.6884 12.2501 56.6884C12.5531 56.6884 12.8504 56.5651 13.0645 56.3508C13.28 56.1365 13.4021 55.8393 13.4021 55.5364C13.4021 55.2334 13.2799 54.9363 13.0645 54.7219Z" fill="#FFD338"/>
</svg>
