<svg width="56" height="56" viewBox="0 0 56 56" fill="none" xmlns="http://www.w3.org/2000/svg">
<path d="M26.4982 8.58081C25.5638 8.58081 24.6854 8.94482 24.0249 9.60577C23.364 10.2663 22.9999 11.1447 23.0004 12.0791C23.0004 14.0466 22.2899 15.9068 20.9927 17.371C21.076 16.9694 21.1201 16.5536 21.1201 16.1277C21.1201 12.752 18.3741 10.0057 14.9985 10.0057C11.6228 10.0057 8.87646 12.752 8.87646 16.1277C8.87646 16.5536 8.92047 16.9694 9.00378 17.371C7.75623 15.9594 6.99658 14.1068 6.99658 12.0791C6.99658 10.1501 5.42731 8.58081 3.49829 8.58081C1.56927 8.58081 0 10.1501 0 12.0791C0 17.9008 3.33722 23.1401 8.56201 25.6249V36.8572C8.56201 36.8628 8.56116 36.8683 8.56116 36.8743V54.8781C8.56116 55.4818 9.05078 55.9709 9.65448 55.9709C10.2582 55.9709 10.7474 55.4818 10.7474 54.8781V37.9677H20.6381V50.5052C20.6381 51.1089 21.1277 51.5985 21.7314 51.5985C22.3351 51.5985 22.8248 51.1089 22.8248 50.5052V24.8683C23.8314 24.2505 24.7623 23.5165 25.5989 22.6799C28.4349 19.8439 29.9965 16.0794 29.9965 12.0791C29.9965 10.1501 28.4272 8.58081 26.4982 8.58081ZM14.9985 12.1919C17.1685 12.1919 18.9338 13.9573 18.9338 16.1277C18.9338 18.2977 17.1685 20.063 14.9985 20.063C12.8281 20.063 11.0627 18.2977 11.0627 16.1277C11.0627 13.9573 12.8281 12.1919 14.9985 12.1919ZM24.0531 21.1337C23.2063 21.9801 22.2467 22.7043 21.2004 23.2862C20.8535 23.4789 20.6381 23.8446 20.6381 24.2415V35.781H10.7482V24.9161C10.7482 24.4752 10.4833 24.0775 10.0766 23.9074C5.28333 21.9049 2.18622 17.262 2.18622 12.0791C2.18622 11.3558 2.77454 10.7675 3.49786 10.7675C4.22119 10.7675 4.80994 11.3562 4.80994 12.0791C4.80994 17.697 9.38062 22.2672 14.998 22.2672H14.9985C17.7153 22.2672 20.2724 21.2068 22.1993 19.2803C24.1257 17.3543 25.1866 14.7968 25.1866 12.0791C25.1866 11.7288 25.3229 11.3994 25.5707 11.1516C25.8185 10.9037 26.1479 10.7675 26.4982 10.7675C27.2216 10.7675 27.8099 11.3558 27.8103 12.0791C27.8103 15.4954 26.4756 18.7108 24.0531 21.1337Z" fill="#FFD338"/>
<path d="M21.7315 53.7852C21.4427 53.7852 21.162 53.9018 20.9586 54.1052C20.7552 54.3085 20.6382 54.5897 20.6382 54.8781C20.6382 55.1656 20.7552 55.4476 20.9586 55.6509C21.162 55.8543 21.444 55.9714 21.7315 55.9714C22.019 55.9714 22.301 55.8543 22.5044 55.6509C22.7078 55.4476 22.8248 55.1656 22.8248 54.8781C22.8248 54.5905 22.7078 54.3085 22.5044 54.1052C22.301 53.9018 22.019 53.7852 21.7315 53.7852Z" fill="#FFD338"/>
<path d="M15.7056 42.4067C15.1019 42.4067 14.6123 42.8964 14.6123 43.5001V54.9067C14.6123 55.5104 15.1019 56 15.7056 56C16.3093 56 16.7985 55.5104 16.7985 54.9067V43.5001C16.7985 42.8964 16.3093 42.4067 15.7056 42.4067Z" fill="#FFD338"/>
<path d="M52.4733 23.5391C51.5389 23.5391 50.66 23.9031 49.9995 24.5637C49.3386 25.2246 48.975 26.103 48.975 27.0374C48.975 29.0049 48.2649 30.8651 46.9678 32.3293C47.0507 31.9277 47.0947 31.512 47.0947 31.086C47.0947 27.7103 44.3488 24.964 40.9731 24.964C37.5974 24.964 34.8511 27.7103 34.8511 31.086C34.8511 31.512 34.8951 31.9277 34.9784 32.3293C33.7308 30.9177 32.9712 29.0651 32.9712 27.0374C32.9712 25.1084 31.4019 23.5391 29.4729 23.5391C27.5439 23.5391 25.9746 25.1084 25.9746 27.0374C25.9746 28.3704 26.1506 29.6932 26.498 30.9698C26.6561 31.5521 27.2563 31.8965 27.8395 31.7376C28.4223 31.579 28.7658 30.9783 28.6073 30.396C28.3112 29.3065 28.1608 28.1765 28.1608 27.0374C28.1608 26.3141 28.7496 25.7253 29.4729 25.7253C30.1962 25.7258 30.7845 26.3141 30.7845 27.0374C30.7845 32.6553 35.3552 37.2255 40.9727 37.2255H40.9731C43.6899 37.2255 46.247 36.1647 48.1739 34.2386C50.1003 32.3126 51.1612 29.7551 51.1612 27.037C51.1612 26.6871 51.2975 26.3577 51.5453 26.1099C51.7931 25.8621 52.1225 25.7253 52.4728 25.7253C53.1962 25.7253 53.7845 26.3141 53.7849 27.0374C53.7845 30.4537 52.4502 33.6691 50.0273 36.092C49.1813 36.9384 48.2213 37.6626 47.175 38.2441C46.8281 38.4372 46.6127 38.8029 46.6127 39.1998V50.7393H36.7228V39.8745C36.7228 39.4335 36.4579 39.0358 36.0512 38.8657C34.9848 38.4201 33.9812 37.8301 33.0686 37.1127C32.5939 36.7393 31.9069 36.8218 31.5335 37.2965C31.1605 37.7707 31.2426 38.4581 31.7172 38.8315C32.5914 39.519 33.5373 40.106 34.5366 40.5828V51.8156C34.5362 51.8211 34.5358 51.8267 34.5358 51.8326V54.8781C34.5358 55.4818 35.025 55.971 35.6287 55.971C36.2324 55.971 36.722 55.4818 36.722 54.8781V52.9255H46.6127V54.8781C46.6127 55.4818 47.1024 55.971 47.7061 55.971C48.3098 55.971 48.799 55.4818 48.799 54.8781V39.8266C49.806 39.2088 50.7369 38.4744 51.5735 37.6378C54.4091 34.8022 55.9711 31.0373 55.9711 27.037C55.9711 25.1084 54.4019 23.5391 52.4733 23.5391ZM40.9731 27.1502C43.1431 27.1502 44.9085 28.9156 44.9085 31.086C44.9085 33.256 43.1431 35.0214 40.9731 35.0214C38.8031 35.0214 37.0377 33.256 37.0377 31.086C37.0377 28.9156 38.8031 27.1502 40.9731 27.1502Z" fill="#FFD338"/>
<path d="M30.3475 34.1878C30.0091 33.6875 29.3294 33.5563 28.8295 33.8938C28.3292 34.2322 28.1976 34.9115 28.5356 35.4118L28.548 35.4302C28.7586 35.7459 29.1051 35.9168 29.4584 35.9168C29.6665 35.9168 29.8776 35.8575 30.0638 35.7331C30.5663 35.3982 30.7017 34.7197 30.3667 34.2173L30.3475 34.1878Z" fill="#FFD338"/>
<path d="M48.9747 14.1906C49.5784 14.1906 50.068 13.7014 50.068 13.0977V11.5878C50.068 10.9841 49.5784 10.4944 48.9747 10.4944C48.371 10.4944 47.8813 10.9841 47.8813 11.5878V13.0977C47.8813 13.7014 48.371 14.1906 48.9747 14.1906Z" fill="#FFD338"/>
<path d="M48.9747 21.4264C49.5784 21.4264 50.068 20.9368 50.068 20.3331V18.8232C50.068 18.2199 49.5784 17.7303 48.9747 17.7303C48.371 17.7303 47.8813 18.2199 47.8813 18.8232V20.3331C47.8813 20.9368 48.371 21.4264 48.9747 21.4264Z" fill="#FFD338"/>
<path d="M51.838 17.0535H53.3478C53.9515 17.0535 54.4407 16.5643 54.4407 15.9606C54.4407 15.3569 53.9515 14.8673 53.3478 14.8673H51.838C51.2343 14.8673 50.7446 15.3569 50.7446 15.9606C50.7446 16.5643 51.2343 17.0535 51.838 17.0535Z" fill="#FFD338"/>
<path d="M44.6021 17.0535H46.112C46.7157 17.0535 47.2053 16.5643 47.2053 15.9606C47.2053 15.3569 46.7157 14.8673 46.112 14.8673H44.6021C43.9984 14.8673 43.5088 15.3569 43.5088 15.9606C43.5088 16.5643 43.9984 17.0535 44.6021 17.0535Z" fill="#FFD338"/>
<path d="M37.606 3.69611C38.2097 3.69611 38.6989 3.20648 38.6989 2.60278V1.09332C38.6989 0.489624 38.2097 0 37.606 0C37.0023 0 36.5127 0.489624 36.5127 1.09332V2.60278C36.5127 3.20648 37.0019 3.69611 37.606 3.69611Z" fill="#FFD338"/>
<path d="M37.606 10.9319C38.2097 10.9319 38.6989 10.4423 38.6989 9.83862V8.32874C38.6989 7.72504 38.2097 7.23541 37.606 7.23541C37.0023 7.23541 36.5127 7.72504 36.5127 8.32874V9.83862C36.5127 10.4423 37.0019 10.9319 37.606 10.9319Z" fill="#FFD338"/>
<path d="M40.4684 6.55908H41.9783C42.582 6.55908 43.0716 6.06946 43.0716 5.46576C43.0716 4.86206 42.582 4.37286 41.9783 4.37286H40.4684C39.8647 4.37286 39.3755 4.86206 39.3755 5.46576C39.3755 6.06946 39.8647 6.55908 40.4684 6.55908Z" fill="#FFD338"/>
<path d="M33.233 6.55908H34.7429C35.3466 6.55908 35.8362 6.06946 35.8362 5.46576C35.8362 4.86206 35.3466 4.37286 34.7429 4.37286H33.233C32.6293 4.37286 32.1396 4.86206 32.1396 5.46576C32.1396 6.06946 32.6293 6.55908 33.233 6.55908Z" fill="#FFD338"/>
</svg>
