<svg width="70" height="70" viewBox="0 0 70 70" fill="none" xmlns="http://www.w3.org/2000/svg">
<path d="M15.3125 48.6719C14.7085 48.6719 14.2188 49.1616 14.2188 49.7656C14.2188 50.3687 13.7281 50.8594 13.125 50.8594C12.5219 50.8594 12.0312 50.3687 12.0312 49.7656C12.0312 49.1626 12.5219 48.6719 13.125 48.6719C13.729 48.6719 14.2188 48.1821 14.2188 47.5781C14.2188 46.9741 13.729 46.4844 13.125 46.4844C11.3157 46.4844 9.84375 47.9564 9.84375 49.7656C9.84375 51.5748 11.3157 53.0469 13.125 53.0469C14.9343 53.0469 16.4062 51.5748 16.4062 49.7656C16.4062 49.1616 15.9165 48.6719 15.3125 48.6719Z" fill="#FFD338"/>
<path d="M59.0625 48.6719C58.4585 48.6719 57.9688 49.1616 57.9688 49.7656C57.9688 50.3687 57.4781 50.8594 56.875 50.8594C56.2719 50.8594 55.7812 50.3687 55.7812 49.7656C55.7812 49.1626 56.2719 48.6719 56.875 48.6719C57.479 48.6719 57.9688 48.1821 57.9688 47.5781C57.9688 46.9741 57.479 46.4844 56.875 46.4844C55.0657 46.4844 53.5938 47.9564 53.5938 49.7656C53.5938 51.5748 55.0657 53.0469 56.875 53.0469C58.6843 53.0469 60.1562 51.5748 60.1562 49.7656C60.1562 49.1616 59.6665 48.6719 59.0625 48.6719Z" fill="#FFD338"/>
<path d="M70 34.4531C70 34.1481 69.8749 33.8725 69.6735 33.6741C69.2058 32.3814 68.2582 31.296 66.977 30.6554C66.9428 30.6383 66.908 30.6231 66.8721 30.6097L63.2574 29.2528L61.0555 20.8863C61.0523 20.8742 61.049 20.8622 61.0453 20.8503C60.3461 18.5194 58.2411 16.9531 55.8074 16.9531H48.125V14.7656C48.125 13.5595 47.1436 12.5781 45.9375 12.5781H2.1875C0.981367 12.5781 0 13.5595 0 14.7656V45.3906C0 46.5968 0.981367 47.5781 2.1875 47.5781H5.78881C5.68285 47.9328 5.60178 48.298 5.54805 48.6719H1.09375C0.489727 48.6719 0 49.1616 0 49.7656C0 50.3696 0.489727 50.8594 1.09375 50.8594H5.54818C6.0807 54.5647 9.27486 57.4219 13.125 57.4219C16.9751 57.4219 20.1694 54.5647 20.7018 50.8594H22.9688C22.9688 52.6686 24.4407 54.1406 26.25 54.1406H32.8125C34.6218 54.1406 36.0938 52.6686 36.0938 50.8594H49.2982C49.8307 54.5647 53.0249 57.4219 56.875 57.4219C60.7251 57.4219 63.9194 54.5647 64.4518 50.8594H68.9062C69.5103 50.8594 70 50.3696 70 49.7656C70 49.1616 69.5103 48.6719 68.9062 48.6719H64.4518C64.3981 48.298 64.317 47.9328 64.2111 47.5781H67.8125C69.0186 47.5781 70 46.5968 70 45.3906V35.5469C70 35.2898 69.9821 35.0362 69.9476 34.787C69.9814 34.6817 70 34.5696 70 34.4531ZM67.8125 41.0156H66.7188V39.9219H67.8125V41.0156ZM66.9784 33.3594H48.125V31.1719H62.1454L66.0461 32.6361C66.4054 32.823 66.7185 33.0697 66.9784 33.3594ZM55.8074 19.1406C57.2618 19.1406 58.5207 20.0729 58.9452 21.4624L60.9249 28.9844H48.125V19.1406H55.8074ZM6.56264 45.3906H2.1875V39.9219H36.0943C36.6983 39.9219 37.188 39.4321 37.188 38.8281C37.188 38.2241 36.6983 37.7344 36.0943 37.7344H2.1875V14.7656H45.9375V45.3906H32.8125H26.25H19.6878C19.5974 45.3906 19.51 45.4028 19.426 45.4234C18.0435 43.4232 15.7352 42.1094 13.125 42.1094C10.5148 42.1094 8.20668 43.4232 6.82404 45.4234C6.7401 45.4028 6.65287 45.3906 6.56264 45.3906ZM13.125 55.2344C10.1095 55.2344 7.65625 52.7811 7.65625 49.7656C7.65625 46.7502 10.1095 44.2969 13.125 44.2969C16.1405 44.2969 18.5938 46.7502 18.5938 49.7656C18.5938 52.7811 16.1405 55.2344 13.125 55.2344ZM20.7018 48.6719C20.6481 48.298 20.567 47.9328 20.4611 47.5781H23.1569C23.0355 47.9205 22.9688 48.2885 22.9688 48.6719H20.7018ZM33.9062 50.8594C33.9062 51.4624 33.4156 51.9531 32.8125 51.9531H26.25C25.6469 51.9531 25.1562 51.4624 25.1562 50.8594V49.7682C25.1562 49.7673 25.1564 49.7664 25.1564 49.7656C25.1564 49.7648 25.1562 49.7638 25.1562 49.763V48.6719C25.1562 48.0688 25.6469 47.5781 26.25 47.5781H32.8125C33.4156 47.5781 33.9062 48.0688 33.9062 48.6719V50.8594ZM35.9056 47.5781H47.0312H49.5388C49.4329 47.9328 49.3518 48.298 49.298 48.6719H36.0938C36.0938 48.2885 36.027 47.9205 35.9056 47.5781ZM56.875 55.2344C53.8595 55.2344 51.4062 52.7811 51.4062 49.7656C51.4062 46.7502 53.8595 44.2969 56.875 44.2969C59.8905 44.2969 62.3438 46.7502 62.3438 49.7656C62.3438 52.7811 59.8905 55.2344 56.875 55.2344ZM63.4375 45.3906C63.3473 45.3906 63.2599 45.4028 63.176 45.4234C61.7933 43.4232 59.4852 42.1094 56.875 42.1094C54.2648 42.1094 51.9567 43.4232 50.574 45.4234C50.4901 45.4028 50.4029 45.3906 50.3126 45.3906H48.1251V35.5469H67.8126V37.7344H66.7189C65.5128 37.7344 64.5314 38.7157 64.5314 39.9219V41.0156C64.5314 42.2218 65.5128 43.2031 66.7189 43.2031H67.8126V45.3906H63.4375Z" fill="#FFD338"/>
<path d="M27.3438 48.6719C27.0553 48.6719 26.7736 48.7893 26.5699 48.9918C26.3662 49.1955 26.25 49.4785 26.25 49.7656C26.25 50.054 26.3662 50.3357 26.5699 50.5395C26.7736 50.743 27.0553 50.8594 27.3438 50.8594C27.6322 50.8594 27.9139 50.743 28.1176 50.5395C28.3213 50.3357 28.4375 50.0526 28.4375 49.7656C28.4375 49.4784 28.3213 49.1955 28.1176 48.9918C27.9139 48.7893 27.6322 48.6719 27.3438 48.6719Z" fill="#FFD338"/>
<path d="M40.4692 39.9219H42.6562C43.2602 39.9219 43.7499 39.4321 43.7499 38.8281C43.7499 38.2241 43.2602 37.7344 42.6562 37.7344H40.4692C39.8652 37.7344 39.3755 38.2241 39.3755 38.8281C39.3755 39.4321 39.8651 39.9219 40.4692 39.9219Z" fill="#FFD338"/>
</svg>
