<svg width="68" height="68" viewBox="0 0 68 68" fill="none" xmlns="http://www.w3.org/2000/svg">
<g clip-path="url(#clip0)">
<path d="M59.0162 9.18895H8.98351C8.38426 9.18895 7.89844 9.67462 7.89844 10.274V17.1726C7.89844 17.772 8.38426 18.2577 8.98351 18.2577H59.0163C59.6157 18.2577 60.1014 17.772 60.1014 17.1726V10.274C60.1013 9.67477 59.6156 9.18895 59.0162 9.18895ZM57.9311 16.0875H10.0686V11.3591H57.9313V16.0875H57.9311Z" fill="#FFD338"/>
<path d="M67.9309 30.6895L64.0944 20.4578V6.79239C64.0944 6.193 63.6087 5.70732 63.0093 5.70732H4.99055C4.3913 5.70732 3.90548 6.193 3.90548 6.79239V20.4576L0.0691089 30.6895C-0.0558911 31.0227 -0.00945016 31.396 0.193241 31.6885C0.395932 31.9809 0.729265 32.1555 1.08517 32.1555H3.90562V60.1225H2.31752C1.71827 60.1225 1.23245 60.6082 1.23245 61.2076C1.23245 61.807 1.71827 62.2927 2.31752 62.2927H65.6825C66.2819 62.2927 66.7676 61.807 66.7676 61.2076C66.7676 60.6082 66.2819 60.1225 65.6825 60.1225H64.0944V32.1555H66.9149C67.2708 32.1555 67.6041 31.981 67.8066 31.6885C68.0095 31.396 68.0558 31.0226 67.9309 30.6895ZM6.07562 7.87746H61.9243V19.5692H6.07562V7.87746ZM13.2706 21.7393L11.2094 29.9854H8.04668L10.6232 21.7394L13.2706 21.7393ZM15.5075 21.7393H18.1879L16.642 29.9852H13.4463L15.5075 21.7393ZM20.3958 21.7393H23.1011L22.0704 29.9852H18.8498L20.3958 21.7393ZM25.288 21.7393H28.0101L27.4947 29.9852H24.2573L25.288 21.7393ZM30.1844 21.7393H32.9149V29.9852H29.6691L30.1844 21.7393ZM35.0849 21.7393H37.8155L38.3308 29.9852H35.0849V21.7393ZM40.5051 29.9854L39.9898 21.7394H42.7117L43.7423 29.9854H40.5051ZM45.9295 29.9854L44.899 21.7394H47.6041L49.1501 29.9854H45.9295ZM51.358 29.9854L49.812 21.7394H52.4923L54.5535 29.9854H51.358ZM56.7904 29.9854L54.7293 21.7394H57.3767L59.9531 29.9854H56.7904ZM5.74243 21.7393H8.34949L5.7731 29.9854H2.65071L5.74243 21.7393ZM46.701 47.0988H54.372V54.6973H46.701V47.0988ZM46.701 56.8675H54.372V60.1221H46.701V56.8675ZM44.4358 41.8762L45.64 38.1008H55.4327L56.6368 41.8762H44.4358ZM54.3722 44.0463V44.9287H46.7012V44.0463H54.3722ZM61.9243 60.1224H56.5423V44.0463H58.1219C58.4683 44.0463 58.7938 43.8809 58.9981 43.6014C59.2023 43.3219 59.2609 42.9614 59.1558 42.6315L57.2593 36.6861C57.1158 36.2363 56.6977 35.9307 56.2255 35.9307H44.8473C44.3751 35.9307 43.9571 36.2361 43.8135 36.6861L41.9172 42.6315C41.8119 42.9614 41.8706 43.3218 42.0749 43.6014C42.2792 43.8811 42.6047 44.0463 42.951 44.0463H44.5312V60.1224H6.07562V32.1555H61.9243V60.1224ZM62.2269 29.9854L59.6505 21.7394H62.2573L65.3492 29.9854H62.2269Z" fill="#FFD338"/>
<path d="M9.64187 44.0463H10.9466V55.467C10.9466 56.0664 11.4324 56.5521 12.0316 56.5521H35.6083C36.2077 56.5521 36.6934 56.0664 36.6934 55.467V44.0463H37.9979C38.3443 44.0463 38.6698 43.8809 38.8741 43.6014C39.0784 43.3219 39.1369 42.9614 39.0318 42.6315L37.1355 36.6861C36.992 36.2363 36.5739 35.9307 36.1017 35.9307H11.5383C11.0661 35.9307 10.6481 36.2361 10.5044 36.6861L8.60816 42.6315C8.50298 42.9614 8.56158 43.3218 8.76586 43.6014C8.97014 43.8811 9.29566 44.0463 9.64187 44.0463ZM34.5232 54.3819H13.1167V44.0463H34.5232V54.3819ZM12.3311 38.1008H35.3085L36.5127 41.8762H11.127L12.3311 38.1008Z" fill="#FFD338"/>
</g>
<defs>
<clipPath id="clip0">
<rect width="68" height="68" fill="white"/>
</clipPath>
</defs>
</svg>
