<svg width="55" height="56" viewBox="0 0 55 56" fill="none" xmlns="http://www.w3.org/2000/svg">
<g clip-path="url(#clip0)">
<path d="M54.4432 12.1119L33.0226 0.135788C32.7008 -0.0440826 32.3105 -0.0440826 31.9887 0.135788L23.9148 4.64964C23.7445 4.69536 23.5854 4.78252 23.4537 4.9077L10.5685 12.1119C10.2248 12.3038 10.0112 12.6712 10.0112 13.0707V27.5552C7.83762 28.2473 5.8457 29.4679 4.18947 31.1547C-0.127546 35.5498 -1.2282 42.2533 1.45063 47.8352C1.7108 48.3778 2.35407 48.603 2.88698 48.3377C3.42031 48.0724 3.64103 47.4174 3.38087 46.8748C1.10487 42.1319 2.04019 36.4363 5.70848 32.7013C8.00253 30.3656 11.0523 29.0791 14.2964 29.0791C17.5404 29.0791 20.5902 30.3656 22.8842 32.7013C25.1779 35.0367 26.4413 38.1419 26.4413 41.4449C26.4413 44.748 25.1779 47.8532 22.8838 50.1889C19.2155 53.9239 13.6216 54.8763 8.96345 52.5589C8.43054 52.2936 7.78727 52.5187 7.5271 53.0613C7.26652 53.6044 7.48724 54.2593 8.02057 54.5242C10.0175 55.518 12.1601 56.0008 14.2871 56.0008C17.9978 56.0003 21.659 54.5298 24.4033 51.7356C25.6617 50.4543 26.6562 48.976 27.3599 47.3691L31.9887 49.957C32.1498 50.0471 32.3277 50.092 32.5056 50.092C32.6835 50.092 32.8619 50.0471 33.0226 49.957L54.4432 37.9812C54.7869 37.789 55.0004 37.4216 55.0004 37.0225V29.4214C55.0004 28.8172 54.5196 28.3276 53.9262 28.3276C53.3329 28.3276 52.852 28.8172 52.852 29.4214V36.3752L33.5832 47.1482V25.6919L39.9425 22.1364V27.7726C39.9425 28.1597 40.1431 28.5177 40.47 28.7143C40.6386 28.8155 40.8275 28.8664 41.0167 28.8664C41.1946 28.8664 41.373 28.8215 41.5345 28.7309L46.1247 26.1585C46.468 25.9662 46.6807 25.5992 46.6807 25.2006V18.3689L52.852 14.9189V20.6718C52.852 21.2759 53.3329 21.7655 53.9262 21.7655C54.5196 21.7655 55.0004 21.2759 55.0004 20.6718V13.0707C55.0004 12.6716 54.7869 12.3038 54.4432 12.1119ZM32.5056 2.34209L51.6943 13.0707L45.6413 16.4549L26.4527 5.7263L32.5056 2.34209ZM32.5056 23.7988L13.317 13.0707L19.5919 9.56212L38.781 20.2903L32.5056 23.7988ZM41.0125 19.0427L21.8239 8.31456L24.2207 6.97429L43.4098 17.7024L41.0125 19.0427ZM24.4033 31.1547C21.7034 28.4058 18.114 26.8921 14.2964 26.8921C13.5742 26.8921 12.8609 26.9463 12.1597 27.0527V14.9189L31.4352 25.6958V47.1521L28.0896 45.2816C28.419 44.0469 28.5893 42.7591 28.5893 41.4449C28.5893 37.5578 27.1026 33.9032 24.4033 31.1547ZM44.5327 24.5542L42.0909 25.9227V20.9354L44.5327 19.5704V24.5542Z" fill="#FFD338"/>
<path d="M53.9258 23.9467C53.6434 23.9467 53.366 24.0638 53.1663 24.2671C52.9665 24.4705 52.8516 24.7525 52.8516 25.0405C52.8516 25.328 52.9665 25.61 53.1663 25.8133C53.366 26.0171 53.6434 26.1338 53.9258 26.1338C54.2082 26.1338 54.4856 26.0171 54.6853 25.8133C54.885 25.61 55 25.328 55 25.0405C55 24.7525 54.885 24.4705 54.6853 24.2671C54.4856 24.0638 54.2082 23.9467 53.9258 23.9467Z" fill="#FFD338"/>
<path d="M10.6838 42.5379C10.9586 42.5379 11.2339 42.4311 11.4433 42.2179C11.8629 41.7906 11.8629 41.0981 11.4433 40.6708L10.6993 39.9129H17.0481C18.5881 39.9129 19.8411 41.1886 19.8411 42.7566C19.8411 44.3246 18.5881 45.6004 17.0481 45.6004H13.2862C12.6929 45.6004 12.212 46.09 12.212 46.6941C12.212 47.2978 12.6929 47.7875 13.2862 47.7875H17.0481C19.7727 47.7875 21.9895 45.5307 21.9895 42.7566C21.9895 39.9825 19.7727 37.7258 17.0481 37.7258H10.6993L11.4433 36.9679C11.8629 36.5406 11.8629 35.8481 11.4433 35.4208C11.0241 34.994 10.3439 34.994 9.92426 35.4208L7.34614 38.0458C6.92694 38.4731 6.92694 39.1656 7.34614 39.5929L9.92426 42.2175C10.1341 42.4311 10.4089 42.5379 10.6838 42.5379Z" fill="#FFD338"/>
<path d="M4.9494 52.0569C4.64392 52.0569 4.34054 51.9245 4.12863 51.6677L4.12653 51.6651C3.74468 51.2029 3.80343 50.5133 4.25745 50.1245C4.71148 49.7353 5.38916 49.7951 5.77101 50.2574C6.15244 50.7201 6.09495 51.4109 5.64093 51.7997C5.43909 51.9723 5.19362 52.0569 4.9494 52.0569Z" fill="#FFD338"/>
</g>
<defs>
<clipPath id="clip0">
<rect width="55" height="56" fill="white"/>
</clipPath>
</defs>
</svg>
