<svg width="56" height="56" viewBox="0 0 56 56" fill="none" xmlns="http://www.w3.org/2000/svg">
<g clip-path="url(#clip0)">
<path d="M11.7031 20.7813C11.7031 29.8278 19.0629 37.1875 28.1094 37.1875C37.1559 37.1875 44.5156 29.8278 44.5156 20.7813C44.5156 11.7347 37.1559 4.375 28.1094 4.375C19.0629 4.375 11.7031 11.7347 11.7031 20.7813ZM28.1094 6.5625C35.9498 6.5625 42.3281 12.9409 42.3281 20.7813C42.3281 28.6216 35.9498 35 28.1094 35C20.269 35 13.8906 28.6216 13.8906 20.7813C13.8906 12.9409 20.269 6.5625 28.1094 6.5625Z" fill="#FFD338"/>
<path d="M17.98 18.8313L22.2196 23.0085L21.2441 28.8793C21.1762 29.2881 21.345 29.7 21.6804 29.9435C22.0153 30.1871 22.4592 30.22 22.8271 30.0294L28.1091 27.2865L33.3908 30.0294C33.7556 30.2187 34.1995 30.1892 34.5375 29.9435C34.8729 29.7 35.0416 29.2881 34.9737 28.8793L33.9983 23.0085L38.2379 18.8313C38.5331 18.5408 38.6386 18.1084 38.5105 17.714C38.3823 17.3201 38.0426 17.0326 37.6329 16.9706L31.7493 16.085L29.0871 10.761C28.9021 10.3906 28.5231 10.1565 28.1091 10.1565C27.6947 10.1565 27.3162 10.3906 27.1307 10.761L24.4686 16.085L18.585 16.9706C18.1752 17.0322 17.8356 17.3201 17.7074 17.714C17.5792 18.1084 17.6852 18.5408 17.98 18.8313ZM25.356 18.1635C25.708 18.1105 26.0122 17.8896 26.1716 17.5713L28.1091 13.6958L30.0467 17.5713C30.2061 17.8896 30.5103 18.1105 30.8623 18.1635L35.1446 18.8082L32.0586 21.8481C31.8052 22.098 31.689 22.4556 31.7471 22.8068L32.4572 27.0797L28.6129 25.0836C28.4552 25.0016 28.2822 24.9606 28.1091 24.9606C27.9361 24.9606 27.7631 25.0016 27.605 25.0836L23.7606 27.0797L24.4707 22.8068C24.5292 22.4556 24.413 22.098 24.1592 21.8481L21.0737 18.8082L25.356 18.1635Z" fill="#FFD338"/>
<path d="M29.2031 1.09375C29.2031 1.69787 28.7135 2.1875 28.1094 2.1875C27.5052 2.1875 27.0156 1.69787 27.0156 1.09375C27.0156 0.48962 27.5052 -3.8147e-06 28.1094 -3.8147e-06C28.7135 -3.8147e-06 29.2031 0.48962 29.2031 1.09375Z" fill="#FFD338"/>
<path d="M22.9547 0.644708C13.7539 2.99328 7.32812 11.2737 7.32812 20.7812C7.32812 26.6862 9.81085 32.2502 14.1692 36.1907L7.57977 47.8037C7.36786 48.1775 7.39435 48.6407 7.64728 48.9876C7.90021 49.3349 8.33258 49.502 8.75342 49.4144L16.2366 47.8605L18.8668 55.272C19.0095 55.6753 19.3748 55.9577 19.8011 55.9957C20.2275 56.0337 20.6364 55.8188 20.8479 55.4467L28.1094 42.6806L35.3704 55.4467C35.5661 55.7906 35.9301 55.9996 36.3206 55.9996C36.3527 55.9996 36.3851 55.9983 36.4172 55.9957C36.8436 55.9577 37.2089 55.6749 37.352 55.272L39.9817 47.8605L47.4649 49.4144C47.8853 49.5016 48.3181 49.3345 48.571 48.9876C48.8244 48.6407 48.8505 48.1775 48.6385 47.8037L42.0491 36.1907C46.4075 32.2502 48.8902 26.6862 48.8902 20.7812C48.8902 11.2737 42.4644 2.99328 33.2641 0.644708C32.6783 0.495171 32.0832 0.848504 31.9337 1.43383C31.7841 2.01916 32.1375 2.61474 32.7228 2.76428C40.9541 4.86547 46.7031 12.2743 46.7031 20.7812C46.7031 31.1347 38.2945 39.375 28.1094 39.375C17.917 39.375 9.51562 31.1279 9.51562 20.7812C9.51562 12.2743 15.2642 4.86547 23.4955 2.76428C24.0809 2.61474 24.4342 2.01916 24.2851 1.43383C24.1356 0.848504 23.5404 0.495171 22.9547 0.644708ZM20.1288 52.2872L17.9794 46.2302C17.7965 45.7149 17.2616 45.4137 16.7263 45.5248L10.6752 46.7813L15.8901 37.5904C18.9308 39.801 22.5312 41.1476 26.2752 41.4809L20.1288 52.2872ZM39.4921 45.5248C38.9572 45.4137 38.4218 45.7149 38.239 46.2302L36.0899 52.2872L29.9431 41.4809C33.6875 41.1476 37.2875 39.801 40.3286 37.5904L45.5436 46.7813L39.4921 45.5248Z" fill="#FFD338"/>
</g>
<defs>
<clipPath id="clip0">
<rect width="56" height="56" fill="white"/>
</clipPath>
</defs>
</svg>
